<svg xmlns="http://www.w3.org/2000/svg" viewBox="0 0 354.88 215.33"><defs><style>.cls-1{fill:#fff;}</style></defs><g id="katman_2" data-name="katman 2"><g id="Smart_Siyah" data-name="Smart Siyah"><path class="cls-1" d="M5.61,214.17A8.64,8.64,0,0,1,2.21,211a9.38,9.38,0,0,1,0-9.32,8.71,8.71,0,0,1,3.4-3.22,10.13,10.13,0,0,1,4.85-1.16,10.22,10.22,0,0,1,4.11.8,8.22,8.22,0,0,1,3.09,2.3l-2.6,2.4a5.58,5.58,0,0,0-4.4-2.05,5.87,5.87,0,0,0-2.89.71,5.08,5.08,0,0,0-2,2,5.84,5.84,0,0,0-.71,2.89,5.9,5.9,0,0,0,.71,2.9,5.14,5.14,0,0,0,2,2,5.87,5.87,0,0,0,2.89.71,5.54,5.54,0,0,0,4.4-2.08l2.6,2.4a8.1,8.1,0,0,1-3.1,2.32,10.16,10.16,0,0,1-4.12.8A10,10,0,0,1,5.61,214.17Z"/><path class="cls-1" d="M39.54,197.55V215h-4v-7.16H27.55V215H23.5V197.55h4.05v6.89h7.94v-6.89Z"/><path class="cls-1" d="M50.36,214.16a8.79,8.79,0,0,1-3.42-3.23,9.28,9.28,0,0,1,0-9.27,8.79,8.79,0,0,1,3.42-3.23,10.78,10.78,0,0,1,9.81,0,8.93,8.93,0,0,1,3.42,3.23,9.22,9.22,0,0,1,0,9.27,8.93,8.93,0,0,1-3.42,3.23,10.87,10.87,0,0,1-9.81,0Zm7.71-3a5.2,5.2,0,0,0,2-2,5.9,5.9,0,0,0,.71-2.9A5.84,5.84,0,0,0,60,203.4a5.14,5.14,0,0,0-2-2,5.88,5.88,0,0,0-5.6,0,5.14,5.14,0,0,0-2,2,5.84,5.84,0,0,0-.71,2.89,5.9,5.9,0,0,0,.71,2.9,5.2,5.2,0,0,0,2,2,5.88,5.88,0,0,0,5.6,0Z"/><path class="cls-1" d="M74.54,214.17a8.71,8.71,0,0,1-3.4-3.22,9.44,9.44,0,0,1,0-9.32,8.78,8.78,0,0,1,3.4-3.22,10.83,10.83,0,0,1,9-.36,8.15,8.15,0,0,1,3.09,2.3l-2.6,2.4a5.57,5.57,0,0,0-4.39-2.05,5.88,5.88,0,0,0-2.9.71,5.08,5.08,0,0,0-2,2,5.84,5.84,0,0,0-.71,2.89,5.9,5.9,0,0,0,.71,2.9,5.14,5.14,0,0,0,2,2,5.88,5.88,0,0,0,2.9.71A5.54,5.54,0,0,0,84,209.81l2.6,2.4a8,8,0,0,1-3.1,2.32,10.13,10.13,0,0,1-4.12.8A10,10,0,0,1,74.54,214.17Z"/><path class="cls-1" d="M95.62,214.16a8.66,8.66,0,0,1-3.42-3.23,9.28,9.28,0,0,1,0-9.27,8.66,8.66,0,0,1,3.42-3.23,10.76,10.76,0,0,1,9.8,0,8.91,8.91,0,0,1,0,15.73,10.85,10.85,0,0,1-9.8,0Zm7.7-3a5.07,5.07,0,0,0,2-2,5.8,5.8,0,0,0,.71-2.9,5.73,5.73,0,0,0-.71-2.89,5,5,0,0,0-2-2,5.86,5.86,0,0,0-5.59,0,5.07,5.07,0,0,0-2,2,5.73,5.73,0,0,0-.71,2.89,5.8,5.8,0,0,0,.71,2.9,5.14,5.14,0,0,0,2,2,5.86,5.86,0,0,0,5.59,0Z"/><path class="cls-1" d="M116.26,197.55h4v14.19h8.76V215H116.26Z"/><path class="cls-1" d="M146.13,211.29H138L136.47,215h-4.15l7.79-17.48h4L151.93,215h-4.25Zm-1.27-3.07-2.78-6.7-2.77,6.7Z"/><path class="cls-1" d="M159.62,200.85H154v-3.3h15.24v3.3h-5.6V215h-4Z"/><path class="cls-1" d="M188.09,211.79V215H174.55V197.55h13.22v3.25h-9.2v3.79h8.12v3.15h-8.12v4Z"/><path class="cls-1" d="M218.06,215.33l-2.1-1.94a9.25,9.25,0,0,1-5.84,1.94,9,9,0,0,1-3.42-.61,5.66,5.66,0,0,1-2.39-1.71,3.93,3.93,0,0,1-.86-2.47,4.67,4.67,0,0,1,.91-2.86,9,9,0,0,1,2.94-2.36,7.05,7.05,0,0,1-1.38-1.86,4.26,4.26,0,0,1-.42-1.84,3.85,3.85,0,0,1,.67-2.25,4.41,4.41,0,0,1,1.91-1.51,7.29,7.29,0,0,1,2.86-.53,5.74,5.74,0,0,1,3.65,1.08,3.58,3.58,0,0,1,1.37,2.94,3.78,3.78,0,0,1-.81,2.39,8.18,8.18,0,0,1-2.61,2l3.2,3a11.57,11.57,0,0,0,.87-2.72l3.12,1a11.39,11.39,0,0,1-1.59,4l2,1.9Zm-4.4-4.07-4.22-3.94a5.69,5.69,0,0,0-1.67,1.32,2.35,2.35,0,0,0-.5,1.47,1.85,1.85,0,0,0,.85,1.58,3.86,3.86,0,0,0,2.27.6A5.46,5.46,0,0,0,213.66,211.26Zm-4.1-10.84a1.45,1.45,0,0,0-.52,1.15,2,2,0,0,0,.28,1,6.49,6.49,0,0,0,1.07,1.23,6.86,6.86,0,0,0,1.78-1.21,1.67,1.67,0,0,0,.5-1.16,1.35,1.35,0,0,0-.45-1,1.9,1.9,0,0,0-1.28-.4A2,2,0,0,0,209.56,200.42Z"/><path class="cls-1" d="M239.65,214.17a8.71,8.71,0,0,1-3.4-3.22,9.44,9.44,0,0,1,0-9.32,8.78,8.78,0,0,1,3.4-3.22,10.15,10.15,0,0,1,4.86-1.16,10.28,10.28,0,0,1,4.11.8,8.19,8.19,0,0,1,3.08,2.3l-2.59,2.4a5.59,5.59,0,0,0-4.4-2.05,5.9,5.9,0,0,0-2.9.71,5,5,0,0,0-2,2,5.74,5.74,0,0,0-.72,2.89,5.8,5.8,0,0,0,.72,2.9,5.05,5.05,0,0,0,2,2,5.9,5.9,0,0,0,2.9.71,5.56,5.56,0,0,0,4.4-2.08l2.59,2.4a8,8,0,0,1-3.09,2.32,10.21,10.21,0,0,1-4.13.8A10,10,0,0,1,239.65,214.17Z"/><path class="cls-1" d="M260.73,214.16a8.66,8.66,0,0,1-3.42-3.23,9.28,9.28,0,0,1,0-9.27,8.66,8.66,0,0,1,3.42-3.23,10.76,10.76,0,0,1,9.8,0,8.79,8.79,0,0,1,3.42,3.23,9.22,9.22,0,0,1,0,9.27,8.79,8.79,0,0,1-3.42,3.23,10.85,10.85,0,0,1-9.8,0Zm7.71-3a5.2,5.2,0,0,0,2-2,5.9,5.9,0,0,0,.71-2.9,5.84,5.84,0,0,0-.71-2.89,5.14,5.14,0,0,0-2-2,5.88,5.88,0,0,0-5.6,0,5.14,5.14,0,0,0-2,2,5.84,5.84,0,0,0-.71,2.89,5.9,5.9,0,0,0,.71,2.9,5.2,5.2,0,0,0,2,2,5.88,5.88,0,0,0,5.6,0Z"/><path class="cls-1" d="M285.42,200.8v4.62h8.09v3.24h-8.09V215h-4.05V197.55h13.21v3.25Z"/><path class="cls-1" d="M304.5,200.8v4.62h8.09v3.24H304.5V215h-4.05V197.55h13.22v3.25Z"/><path class="cls-1" d="M333.07,211.79V215H319.54V197.55h13.21v3.25h-9.19v3.79h8.11v3.15h-8.11v4Z"/><path class="cls-1" d="M353,211.79V215H339.42V197.55h13.21v3.25h-9.19v3.79h8.11v3.15h-8.11v4Z"/><path class="cls-1" d="M146.4,13.55A46.13,46.13,0,0,0,113.68,0,63.53,63.53,0,0,0,50.14,63.52v91.64a16.83,16.83,0,1,1-33.66,0V134.62H0v20.54a33.3,33.3,0,0,0,66.6,0V63.85A47.39,47.39,0,0,1,114,16.46a29.5,29.5,0,0,1,11.24,56.78V91.1A46.29,46.29,0,0,0,146.4,13.55Z"/><path class="cls-1" d="M184.87,151v36.5H166.38V153.85c0-10.31-4.62-15-12.08-15-8.3,0-14.11,5.33-14.11,16.71v32H121.7V153.85c0-10.31-4.38-15-12.09-15-8.18,0-14,5.33-14,16.71v32H77.14V123.75H94.8v7.35c4.74-5.45,11.85-8.3,20-8.3,8.89,0,16.47,3.44,21,10.43,5.09-6.52,13.39-10.43,23-10.43C174,122.8,184.87,131.57,184.87,151Z"/><path class="cls-1" d="M259.47,123.75v63.76H241.81v-7.34c-4.62,5.56-11.37,8.29-19.91,8.29-18,0-31.88-12.8-31.88-32.83s13.87-32.83,31.88-32.83c7.82,0,14.46,2.49,19.08,7.7v-6.75Zm-18.13,31.88c0-11-7.11-17.66-16.24-17.66s-16.35,6.64-16.35,17.66,7.11,17.66,16.35,17.66S241.34,166.65,241.34,155.63Z"/><path class="cls-1" d="M306.63,122.8v17.07c-1.54-.12-2.73-.24-4.15-.24-10.19,0-17,5.57-17,17.78v30.1H267V123.75H284.7v8.41C289.2,126,296.79,122.8,306.63,122.8Z"/><circle class="cls-1" cx="97.96" cy="50.68" r="8.39"/><path class="cls-1" d="M354.88,184.42c-3.79,2.73-9.36,4-14.94,4-10,0-17.11-3.32-20.84-9.9a26,26,0,0,1-3-13v-26.2h-3.31V125.16h3.31V100.42A48.16,48.16,0,0,0,268,52.32H172.54V33.82H268A66.69,66.69,0,0,1,334.61,98.7v26.46h15.78v14.22H334.61v26c0,.22,0,.44,0,.66.22,5,3,7.75,7.81,7.75a13,13,0,0,0,7.57-2.37Z"/></g></g></svg>